<mxfile host="app.diagrams.net" modified="2022-10-21T08:33:40.155Z" agent="5.0 (Windows NT 10.0; Win64; x64) AppleWebKit/537.36 (KHTML, like Gecko) Chrome/106.0.0.0 Safari/537.36" etag="4sgdLSHGqRzlpAGJlxkx" version="20.4.2" type="github">
  <diagram id="zfFEZg9UbTM2j6p5eXQk" name="Halaman-1">
    <mxGraphModel dx="1966" dy="829" grid="1" gridSize="10" guides="1" tooltips="1" connect="1" arrows="1" fold="1" page="1" pageScale="1" pageWidth="827" pageHeight="1169" math="0" shadow="0">
      <root>
        <mxCell id="0" />
        <mxCell id="1" parent="0" />
        <mxCell id="1F6dq9coJsSGPumnEafq-5" value="" style="edgeStyle=orthogonalEdgeStyle;rounded=0;orthogonalLoop=1;jettySize=auto;html=1;" edge="1" parent="1" source="1F6dq9coJsSGPumnEafq-1">
          <mxGeometry relative="1" as="geometry">
            <mxPoint x="300" y="60" as="targetPoint" />
          </mxGeometry>
        </mxCell>
        <mxCell id="1F6dq9coJsSGPumnEafq-1" value="&lt;font style=&quot;font-size: 18px;&quot;&gt;&lt;b&gt;Mulai&lt;/b&gt;&lt;/font&gt;" style="rounded=1;whiteSpace=wrap;html=1;" vertex="1" parent="1">
          <mxGeometry x="90" y="30" width="120" height="60" as="geometry" />
        </mxCell>
        <mxCell id="1F6dq9coJsSGPumnEafq-9" value="" style="edgeStyle=orthogonalEdgeStyle;rounded=0;orthogonalLoop=1;jettySize=auto;html=1;fontSize=14;" edge="1" parent="1" source="1F6dq9coJsSGPumnEafq-6" target="1F6dq9coJsSGPumnEafq-8">
          <mxGeometry relative="1" as="geometry" />
        </mxCell>
        <mxCell id="1F6dq9coJsSGPumnEafq-6" value="&lt;font style=&quot;font-size: 14px;&quot;&gt;pelanggan&lt;/font&gt;" style="rounded=0;whiteSpace=wrap;html=1;" vertex="1" parent="1">
          <mxGeometry x="300" y="30" width="120" height="60" as="geometry" />
        </mxCell>
        <mxCell id="1F6dq9coJsSGPumnEafq-13" value="" style="edgeStyle=orthogonalEdgeStyle;rounded=0;orthogonalLoop=1;jettySize=auto;html=1;fontSize=14;" edge="1" parent="1" source="1F6dq9coJsSGPumnEafq-8" target="1F6dq9coJsSGPumnEafq-12">
          <mxGeometry relative="1" as="geometry" />
        </mxCell>
        <mxCell id="1F6dq9coJsSGPumnEafq-8" value="&lt;font style=&quot;font-size: 14px;&quot;&gt;Mengakses &lt;br&gt;E-commerce&lt;/font&gt;" style="whiteSpace=wrap;html=1;rounded=0;" vertex="1" parent="1">
          <mxGeometry x="300" y="130" width="120" height="60" as="geometry" />
        </mxCell>
        <mxCell id="1F6dq9coJsSGPumnEafq-15" value="" style="edgeStyle=orthogonalEdgeStyle;rounded=0;orthogonalLoop=1;jettySize=auto;html=1;fontSize=14;" edge="1" parent="1" source="1F6dq9coJsSGPumnEafq-12" target="1F6dq9coJsSGPumnEafq-14">
          <mxGeometry relative="1" as="geometry" />
        </mxCell>
        <mxCell id="1F6dq9coJsSGPumnEafq-17" style="edgeStyle=orthogonalEdgeStyle;rounded=0;orthogonalLoop=1;jettySize=auto;html=1;fontSize=14;entryX=1;entryY=0.5;entryDx=0;entryDy=0;" edge="1" parent="1" source="1F6dq9coJsSGPumnEafq-12" target="1F6dq9coJsSGPumnEafq-8">
          <mxGeometry relative="1" as="geometry">
            <mxPoint x="480" y="160" as="targetPoint" />
            <Array as="points">
              <mxPoint x="500" y="270" />
              <mxPoint x="500" y="160" />
            </Array>
          </mxGeometry>
        </mxCell>
        <mxCell id="1F6dq9coJsSGPumnEafq-12" value="&lt;font style=&quot;font-size: 14px;&quot;&gt;beli /&lt;br&gt;tidak?&lt;/font&gt;" style="rhombus;whiteSpace=wrap;html=1;rounded=0;" vertex="1" parent="1">
          <mxGeometry x="320" y="230" width="80" height="80" as="geometry" />
        </mxCell>
        <mxCell id="1F6dq9coJsSGPumnEafq-24" style="edgeStyle=orthogonalEdgeStyle;rounded=0;orthogonalLoop=1;jettySize=auto;html=1;entryX=0;entryY=0.5;entryDx=0;entryDy=0;fontSize=14;" edge="1" parent="1" source="1F6dq9coJsSGPumnEafq-14" target="1F6dq9coJsSGPumnEafq-22">
          <mxGeometry relative="1" as="geometry" />
        </mxCell>
        <mxCell id="1F6dq9coJsSGPumnEafq-14" value="&lt;font style=&quot;font-size: 14px;&quot;&gt;melakukan&lt;br&gt;check out dan&lt;br&gt;pembayaran&lt;/font&gt;" style="whiteSpace=wrap;html=1;rounded=0;" vertex="1" parent="1">
          <mxGeometry x="300" y="350" width="120" height="60" as="geometry" />
        </mxCell>
        <mxCell id="1F6dq9coJsSGPumnEafq-16" value="&lt;font style=&quot;font-size: 14px;&quot;&gt;iya&lt;/font&gt;" style="text;strokeColor=none;fillColor=none;html=1;fontSize=24;fontStyle=1;verticalAlign=middle;align=center;" vertex="1" parent="1">
          <mxGeometry x="340" y="320" width="80" height="30" as="geometry" />
        </mxCell>
        <mxCell id="1F6dq9coJsSGPumnEafq-18" value="&lt;font style=&quot;font-size: 14px;&quot;&gt;tidak&lt;/font&gt;" style="text;strokeColor=none;fillColor=none;html=1;fontSize=24;fontStyle=1;verticalAlign=middle;align=center;" vertex="1" parent="1">
          <mxGeometry x="420" y="190" width="100" height="40" as="geometry" />
        </mxCell>
        <mxCell id="1F6dq9coJsSGPumnEafq-21" value="" style="edgeStyle=orthogonalEdgeStyle;rounded=0;orthogonalLoop=1;jettySize=auto;html=1;fontSize=14;" edge="1" parent="1" source="1F6dq9coJsSGPumnEafq-19">
          <mxGeometry relative="1" as="geometry">
            <mxPoint x="670" y="130" as="targetPoint" />
            <Array as="points">
              <mxPoint x="670" y="110" />
              <mxPoint x="670" y="110" />
            </Array>
          </mxGeometry>
        </mxCell>
        <mxCell id="1F6dq9coJsSGPumnEafq-19" value="penjual" style="rounded=1;whiteSpace=wrap;html=1;fontSize=14;" vertex="1" parent="1">
          <mxGeometry x="610" y="30" width="120" height="60" as="geometry" />
        </mxCell>
        <mxCell id="1F6dq9coJsSGPumnEafq-26" value="" style="edgeStyle=orthogonalEdgeStyle;rounded=0;orthogonalLoop=1;jettySize=auto;html=1;fontSize=14;" edge="1" parent="1" source="1F6dq9coJsSGPumnEafq-22" target="1F6dq9coJsSGPumnEafq-25">
          <mxGeometry relative="1" as="geometry" />
        </mxCell>
        <mxCell id="1F6dq9coJsSGPumnEafq-22" value="Menerima&amp;nbsp;&lt;br&gt;pemesanan &amp;amp;&lt;br&gt;Membuat invoice" style="rounded=0;whiteSpace=wrap;html=1;fontSize=14;" vertex="1" parent="1">
          <mxGeometry x="610" y="130" width="120" height="60" as="geometry" />
        </mxCell>
        <mxCell id="1F6dq9coJsSGPumnEafq-28" value="" style="edgeStyle=orthogonalEdgeStyle;rounded=0;orthogonalLoop=1;jettySize=auto;html=1;fontSize=14;" edge="1" parent="1" source="1F6dq9coJsSGPumnEafq-25" target="1F6dq9coJsSGPumnEafq-27">
          <mxGeometry relative="1" as="geometry" />
        </mxCell>
        <mxCell id="1F6dq9coJsSGPumnEafq-25" value="pengiriman dan&lt;br&gt;Menerima&lt;br&gt;Pembayaran" style="whiteSpace=wrap;html=1;fontSize=14;rounded=0;" vertex="1" parent="1">
          <mxGeometry x="610" y="230" width="120" height="60" as="geometry" />
        </mxCell>
        <mxCell id="1F6dq9coJsSGPumnEafq-30" value="" style="edgeStyle=orthogonalEdgeStyle;rounded=0;orthogonalLoop=1;jettySize=auto;html=1;fontSize=14;" edge="1" parent="1" source="1F6dq9coJsSGPumnEafq-27" target="1F6dq9coJsSGPumnEafq-29">
          <mxGeometry relative="1" as="geometry" />
        </mxCell>
        <mxCell id="1F6dq9coJsSGPumnEafq-27" value="saldo ditampung&lt;br&gt;Ke shoopepay/&lt;br&gt;Dompetku" style="whiteSpace=wrap;html=1;fontSize=14;rounded=0;" vertex="1" parent="1">
          <mxGeometry x="610" y="330" width="120" height="60" as="geometry" />
        </mxCell>
        <mxCell id="1F6dq9coJsSGPumnEafq-31" style="edgeStyle=orthogonalEdgeStyle;rounded=0;orthogonalLoop=1;jettySize=auto;html=1;entryX=1;entryY=0.5;entryDx=0;entryDy=0;fontSize=14;" edge="1" parent="1" source="1F6dq9coJsSGPumnEafq-29" target="1F6dq9coJsSGPumnEafq-27">
          <mxGeometry relative="1" as="geometry">
            <Array as="points">
              <mxPoint x="800" y="485" />
              <mxPoint x="800" y="360" />
            </Array>
          </mxGeometry>
        </mxCell>
        <mxCell id="1F6dq9coJsSGPumnEafq-34" value="" style="edgeStyle=orthogonalEdgeStyle;rounded=0;orthogonalLoop=1;jettySize=auto;html=1;fontSize=14;" edge="1" parent="1" source="1F6dq9coJsSGPumnEafq-29" target="1F6dq9coJsSGPumnEafq-33">
          <mxGeometry relative="1" as="geometry" />
        </mxCell>
        <mxCell id="1F6dq9coJsSGPumnEafq-29" value="Dicairkan&lt;br&gt;iya/tidak?" style="rhombus;whiteSpace=wrap;html=1;fontSize=14;rounded=0;" vertex="1" parent="1">
          <mxGeometry x="620" y="430" width="100" height="110" as="geometry" />
        </mxCell>
        <mxCell id="1F6dq9coJsSGPumnEafq-32" value="&lt;font style=&quot;font-size: 14px;&quot;&gt;tidak&lt;/font&gt;" style="text;strokeColor=none;fillColor=none;html=1;fontSize=24;fontStyle=1;verticalAlign=middle;align=center;" vertex="1" parent="1">
          <mxGeometry x="727" y="410" width="100" height="40" as="geometry" />
        </mxCell>
        <mxCell id="1F6dq9coJsSGPumnEafq-39" value="" style="edgeStyle=orthogonalEdgeStyle;rounded=0;orthogonalLoop=1;jettySize=auto;html=1;fontSize=14;" edge="1" parent="1" source="1F6dq9coJsSGPumnEafq-33" target="1F6dq9coJsSGPumnEafq-37">
          <mxGeometry relative="1" as="geometry" />
        </mxCell>
        <mxCell id="1F6dq9coJsSGPumnEafq-33" value="Rekening&amp;nbsp;&lt;br&gt;Bank&amp;nbsp;" style="whiteSpace=wrap;html=1;fontSize=14;rounded=0;" vertex="1" parent="1">
          <mxGeometry x="610" y="585" width="120" height="60" as="geometry" />
        </mxCell>
        <mxCell id="1F6dq9coJsSGPumnEafq-35" value="&lt;font style=&quot;font-size: 14px;&quot;&gt;iya&lt;/font&gt;" style="text;strokeColor=none;fillColor=none;html=1;fontSize=24;fontStyle=1;verticalAlign=middle;align=center;" vertex="1" parent="1">
          <mxGeometry x="650" y="545" width="100" height="40" as="geometry" />
        </mxCell>
        <mxCell id="1F6dq9coJsSGPumnEafq-37" value="selesai" style="rounded=1;whiteSpace=wrap;html=1;fontSize=14;" vertex="1" parent="1">
          <mxGeometry x="610" y="700" width="120" height="60" as="geometry" />
        </mxCell>
        <mxCell id="1F6dq9coJsSGPumnEafq-40" value="Nama : Aliyandi&lt;br&gt;Nim : 1227070015&lt;br&gt;Kelas : A1" style="text;strokeColor=none;fillColor=none;html=1;fontSize=24;fontStyle=1;verticalAlign=middle;align=center;" vertex="1" parent="1">
          <mxGeometry x="60" y="340" width="210" height="80" as="geometry" />
        </mxCell>
      </root>
    </mxGraphModel>
  </diagram>
</mxfile>
